<svg xmlns="http://www.w3.org/2000/svg" xmlns:xlink="http://www.w3.org/1999/xlink" width="100%" height="100%" class="lds-polar" preserveAspectRatio="xMidYMid" viewBox="0 0 100 100" style="background:0 0"><g><g transform="translate(50 50) scale(0.585064 0.585064)"><path fill="#623d51" stroke="none" d="M0 0L0 -40A40 40 0 0 1 34.64101615137754 -20.000000000000004" transform="rotate(0 0 0)"/><animateTransform attributeName="transform" dur="1s" keyTimes="0;0.25;0.5;0.75;1" repeatCount="indefinite" type="scale" values="0.27715119209240535;0.8238600685597985;0.47560706670056596;0.6244013753139508;0.27715119209240535"/></g><g transform="translate(50 50) scale(0.288879 0.288879)"><path fill="#ff8b8c" stroke="none" d="M0 0L0 -40A40 40 0 0 1 34.64101615137754 -20.000000000000004" transform="rotate(60 0 0)"/><animateTransform attributeName="transform" dur="1s" keyTimes="0;0.3333333333333333;0.6666666666666666;1" repeatCount="indefinite" type="scale" values="0.5852342909516401;0.2965771668136011;0.27271574977510227;0.5852342909516401"/></g><g transform="translate(50 50) scale(0.158268 0.158268)"><path fill="#ffef41" stroke="none" d="M0 0L0 -40A40 40 0 0 1 34.64101615137754 -20.000000000000004" transform="rotate(120 0 0)"/><animateTransform attributeName="transform" dur="1s" keyTimes="0;0.5;1" repeatCount="indefinite" type="scale" values="0.06210100887298249;0.21421977034366319;0.06210100887298249"/></g><g transform="translate(50 50) scale(0.651007 0.651007)"><path fill="#9fffe7" stroke="none" d="M0 0L0 -40A40 40 0 0 1 34.64101615137754 -20.000000000000004" transform="rotate(180 0 0)"/><animateTransform attributeName="transform" dur="1s" keyTimes="0;0.25;0.5;0.75;1" repeatCount="indefinite" type="scale" values="0.9745158725065599;0.18878050173619731;0.32807220186657354;0.7670645171819819;0.9745158725065599"/></g><g transform="translate(50 50) scale(0.931117 0.931117)"><path fill="#623d51" stroke="none" d="M0 0L0 -40A40 40 0 0 1 34.64101615137754 -20.000000000000004" transform="rotate(240 0 0)"/><animateTransform attributeName="transform" dur="1s" keyTimes="0;0.16666666666666666;0.3333333333333333;0.5;0.6666666666666666;0.8333333333333334;1" repeatCount="indefinite" type="scale" values="0.8822184603541748;0.07058122765884364;0.24202479147126243;0.7643725857592749;0.9745493061391745;0.5546784643304956;0.8822184603541748"/></g><g transform="translate(50 50) scale(0.264248 0.264248)"><path fill="#ff8b8c" stroke="none" d="M0 0L0 -40A40 40 0 0 1 34.64101615137754 -20.000000000000004" transform="rotate(300 0 0)"/><animateTransform attributeName="transform" dur="1s" keyTimes="0;0.3333333333333333;0.6666666666666666;1" repeatCount="indefinite" type="scale" values="0.1025596094177446;0.7012045015822769;0.2730665676577692;0.1025596094177446"/></g></g></svg>